<svg width="141" height="47" fill="none" xmlns="http://www.w3.org/2000/svg"><g clip-path="url(#a)"><path d="M0 6.267A6.267 6.267 0 0 1 6.267 0h128.466A6.266 6.266 0 0 1 141 6.267v34.466A6.267 6.267 0 0 1 134.733 47H6.267A6.267 6.267 0 0 1 0 40.733V6.267z" fill="#000"/><path d="M44 10v5.926h2.04c1.803 0 2.863-1.096 2.863-2.965 0-1.864-1.064-2.961-2.864-2.961H44zm.757.665h1.232c1.38 0 2.14.822 2.14 2.304 0 1.47-.765 2.292-2.14 2.292h-1.232v-4.596zM51.544 16c1.206 0 2.022-.85 2.022-2.21 0-1.363-.816-2.209-2.022-2.209-1.211 0-2.027.846-2.027 2.21 0 1.359.816 2.209 2.027 2.209zm0-.628c-.774 0-1.283-.575-1.283-1.581 0-1.007.509-1.582 1.283-1.582.773 0 1.278.575 1.278 1.582 0 1.006-.505 1.581-1.278 1.581zm8.325-3.717h-.723l-.874 3.474h-.017l-.993-3.474h-.706l-.988 3.474h-.017l-.875-3.474h-.727l1.223 4.271h.745l.984-3.306h.017l.988 3.306h.744l1.219-4.271zm.602 4.271h.731v-2.513c0-.723.45-1.2 1.14-1.2.673 0 1.005.378 1.005 1.068v2.645h.732v-2.772c0-.97-.556-1.573-1.514-1.573-.677 0-1.144.296-1.388.756h-.017v-.682h-.69l.001 4.271zm4.579 0h.731V10h-.731v5.926zm3.532.074c1.207 0 2.023-.85 2.023-2.21 0-1.363-.816-2.209-2.023-2.209-1.211 0-2.027.846-2.027 2.21 0 1.359.816 2.209 2.027 2.209zm0-.628c-.774 0-1.283-.575-1.283-1.581 0-1.007.51-1.582 1.283-1.582.774 0 1.278.575 1.278 1.582 0 1.006-.504 1.581-1.278 1.581zm4.205.02c-.526 0-.875-.267-.875-.673 0-.403.337-.657.925-.694l1.17-.07v.349c0 .616-.53 1.088-1.22 1.088zm-.164.608c.589 0 1.144-.32 1.404-.81h.017v.736h.694v-2.953c0-.85-.648-1.392-1.674-1.392-1.034 0-1.682.567-1.732 1.306h.706c.093-.419.446-.678 1.01-.678.605 0 .958.313.958.834v.357l-1.253.07c-1.009.058-1.585.518-1.585 1.249 0 .768.584 1.281 1.455 1.281zm4.701 0c.63 0 1.131-.304 1.413-.797h.012v.723h.698V10h-.731v2.35h-.017c-.26-.47-.765-.769-1.392-.769-1.101 0-1.854.87-1.854 2.21 0 1.338.757 2.209 1.871 2.209zm.139-3.79c.752 0 1.257.628 1.257 1.58 0 .957-.505 1.582-1.257 1.582-.774 0-1.262-.612-1.262-1.581 0-.966.488-1.582 1.262-1.582v.001zM84.014 16c1.207 0 2.023-.85 2.023-2.21 0-1.363-.816-2.209-2.023-2.209-1.21 0-2.027.846-2.027 2.21 0 1.359.816 2.209 2.027 2.209zm0-.628c-.774 0-1.283-.575-1.283-1.581 0-1.007.51-1.582 1.283-1.582.774 0 1.278.575 1.278 1.582 0 1.006-.504 1.581-1.278 1.581zm2.763.554h.731v-2.513c0-.723.45-1.2 1.14-1.2.673 0 1.005.378 1.005 1.068v2.645h.732v-2.772c0-.97-.556-1.573-1.514-1.573-.677 0-1.144.296-1.388.756h-.017v-.682h-.69l.001 4.271zm6.543-5.302v1.031h-.652v.587h.652v2.575c0 .822.31 1.142 1.114 1.142.172 0 .374-.012.462-.033v-.6c-.05.009-.218.021-.302.021-.375 0-.543-.177-.543-.567v-2.538h.85v-.587h-.85v-1.03h-.731v-.001zm2.4 5.302h.732v-2.489c0-.739.45-1.223 1.178-1.223.685 0 1.034.406 1.034 1.084v2.628h.731v-2.76c0-.952-.58-1.585-1.538-1.585-.665 0-1.144.28-1.388.756h-.017V10h-.731l-.001 5.926zm6.358-3.725c.69 0 1.149.51 1.165 1.224h-2.376c.046-.71.526-1.224 1.211-1.224zm1.149 2.501c-.123.403-.53.678-1.086.678-.786 0-1.278-.538-1.278-1.355v-.041H104v-.271c0-1.294-.727-2.132-1.91-2.132-1.206 0-1.98.9-1.98 2.226 0 1.343.762 2.193 2.015 2.193.954 0 1.694-.55 1.82-1.298h-.718zM53.18 34.932h2.077l-4.567-12.72h-2.122L44 34.932h2.043l1.157-3.438h4.822l1.158 3.438zm-3.595-10.605h.052l1.885 5.58H47.7l1.885-5.58zm12.002 1.182c-1.333 0-2.393.678-2.937 1.745h-.035v-1.596h-1.833V38h1.894v-4.593h.044c.526 1.032 1.578 1.684 2.902 1.684 2.315 0 3.849-1.86 3.849-4.796 0-2.935-1.543-4.786-3.884-4.786zm-.5 7.969c-1.455 0-2.42-1.252-2.42-3.183 0-1.913.974-3.182 2.42-3.182 1.5 0 2.438 1.243 2.438 3.182 0 1.949-.938 3.183-2.438 3.183zm11.012-7.97c-1.333 0-2.394.68-2.937 1.746h-.035v-1.596h-1.833V38h1.894v-4.593h.044c.526 1.032 1.578 1.684 2.902 1.684 2.314 0 3.849-1.86 3.849-4.796 0-2.935-1.543-4.786-3.884-4.786v-.001zm-.5 7.97c-1.455 0-2.42-1.252-2.42-3.183 0-1.913.973-3.182 2.42-3.182 1.5 0 2.437 1.243 2.437 3.182 0 1.949-.938 3.183-2.437 3.183zm9.88-2.09c.123 2.301 2.017 3.756 4.822 3.756 2.999 0 4.884-1.49 4.884-3.87 0-1.86-1.079-2.91-3.674-3.526l-1.394-.344c-1.63-.406-2.297-.935-2.297-1.834 0-1.128 1.043-1.904 2.569-1.904 1.525 0 2.569.767 2.683 2.036h1.91C90.923 23.507 89.09 22 86.416 22c-2.7 0-4.603 1.507-4.603 3.702 0 1.772 1.079 2.865 3.402 3.43l1.64.396c1.639.406 2.332.997 2.332 1.984 0 1.137-1.149 1.966-2.744 1.966-1.666 0-2.885-.829-3.025-2.09H81.479zm12.152-7.925v2.195h-1.342v1.508h1.342v5.324c0 1.79.727 2.504 2.594 2.504.421 0 .842-.035 1.052-.088v-1.508a4.036 4.036 0 0 1-.622.044c-.771 0-1.122-.361-1.122-1.163v-5.113h1.753v-1.508h-1.753v-2.195h-1.902zm9.31 11.646c2.639 0 4.375-1.825 4.375-4.814 0-2.98-1.745-4.804-4.375-4.804s-4.375 1.825-4.375 4.804c0 2.989 1.736 4.814 4.375 4.814zm0-1.57c-1.482 0-2.446-1.18-2.446-3.244 0-2.054.964-3.235 2.446-3.235 1.482 0 2.446 1.181 2.446 3.235 0 2.063-.955 3.244-2.446 3.244zm6.198 1.393h1.894V29.38c0-1.314.754-2.134 1.973-2.134.368 0 .7.044.85.106V25.58a3.44 3.44 0 0 0-.649-.07c-1.087 0-1.91.643-2.218 1.727h-.044v-1.578h-1.806v9.273zm9.705-7.907c1.324 0 2.218.996 2.262 2.415h-4.611c.096-1.401 1.024-2.415 2.349-2.415zm2.253 5.183c-.254.811-1.051 1.358-2.13 1.358-1.517 0-2.481-1.067-2.481-2.68v-.115H123v-.652c0-2.812-1.596-4.628-4.156-4.628-2.603 0-4.27 1.94-4.27 4.848 0 2.927 1.64 4.77 4.35 4.77 2.112 0 3.708-1.208 3.971-2.9l-1.798-.001zM31.05 33.527a15.34 15.34 0 0 0 1.468-2.707c.17-.414.33-.847.482-1.297a6.21 6.21 0 0 1-1.891-1.273c-1.243-1.18-1.874-2.667-1.893-4.453-.02-2.294.996-4.082 3.05-5.359-1.147-1.673-2.873-2.601-5.17-2.791-.848-.074-1.883.113-3.109.566-1.297.488-2.062.732-2.287.732-.303 0-.991-.209-2.063-.622-1.075-.411-1.94-.62-2.6-.62a6.566 6.566 0 0 0-3.363.973 7.06 7.06 0 0 0-2.487 2.58C10.395 20.611 10 22.23 10 24.106c0 1.638.293 3.33.878 5.078.547 1.617 1.244 3.036 2.092 4.26.79 1.146 1.45 1.955 1.978 2.427.826.787 1.655 1.163 2.485 1.127.547-.019 1.261-.211 2.148-.579.885-.367 1.713-.548 2.485-.548.737 0 1.541.181 2.417.547.873.369 1.623.55 2.246.55.866-.021 1.675-.385 2.43-1.097.487-.434 1.119-1.215 1.891-2.344z" fill="#fff"/><path d="M25.756 13.478c.994-1.21 1.493-2.518 1.493-3.918 0-.186-.009-.373-.029-.56-.692.037-1.429.252-2.207.641-.78.396-1.424.89-1.93 1.486-1.014 1.176-1.585 2.615-1.585 3.96 0 .177.01.354.032.53 1.574.131 3.026-.7 4.226-2.139z" fill="#fff"/></g><defs><clipPath id="a"><path fill="#fff" d="M0 0h141v47H0z"/></clipPath></defs></svg>