<svg width="141" height="47" fill="none" xmlns="http://www.w3.org/2000/svg"><g clip-path="url(#a)"><path d="M0 6.267A6.267 6.267 0 0 1 6.267 0h128.466A6.266 6.266 0 0 1 141 6.267v34.466A6.267 6.267 0 0 1 134.733 47H6.267A6.267 6.267 0 0 1 0 40.733V6.267z" fill="#000"/><path fill-rule="evenodd" clip-rule="evenodd" d="M28.617 9.5H16.38c-5.77 0-7.88 2.11-7.88 7.878v12.244c0 5.768 2.11 7.878 7.88 7.878h12.237c5.77 0 7.883-2.11 7.883-7.878V17.378c.006-5.768-2.105-7.878-7.883-7.878z" fill="#C8102E"/><path d="M14.725 23.502h.683v3.95h-.683v-1.605h-1.542v1.604H12.5v-3.949h.683v1.588h1.542v-1.588zm3.848 2.259c0 .635-.27.985-.764.985-.493 0-.77-.35-.77-1.02v-2.224h-.683v2.256c0 1.109.526 1.744 1.442 1.744.916 0 1.458-.635 1.458-1.78v-2.22h-.683v2.259zm7.892.454-.764-2.713h-.561l-.76 2.716-.744-2.716h-.727l1.174 3.95h.566l.762-2.593.764 2.592h.572l1.173-3.949h-.71l-.745 2.713zm2.677-.467h1.244v-.715h-1.244v-.807h1.805v-.724H28.47v3.94h2.542v-.712h-1.87v-.982zm2.683 1.694h.675v-3.94h-.675v3.94zm-11.22-.817-.306.82h-.696l1.471-3.943h.602l1.477 3.943h-.704l-.29-.817-1.553-.003zm.255-.712h1.027l-.514-1.41-.513 1.41zM22.5 17.5c-1.193 0-2.337-.528-3.181-1.465C18.475 15.097 18 13.825 18 12.5h.635c0 1.139.407 2.231 1.132 3.037.725.805 1.708 1.258 2.733 1.258 1.025 0 2.008-.453 2.733-1.258.725-.806 1.132-1.898 1.132-3.037H27c0 1.326-.475 2.597-1.319 3.535-.844.937-1.988 1.464-3.181 1.465zM53.359 32.468h-4.97l-1.205 3.48H45l4.859-13.005h2.062L56.89 35.95h-2.285l-1.246-3.481zm-4.337-1.78h3.701l-1.325-3.724a27.751 27.751 0 0 1-.537-1.705 59.94 59.94 0 0 1-.522 1.687l-1.316 3.742zM57.769 28.632c0-.718-.023-1.509-.068-2.373h1.977c.075.407.126.818.153 1.23a3.774 3.774 0 0 1 1.265-1.03 3.596 3.596 0 0 1 1.56-.38 3.074 3.074 0 0 1 1.786.54c.53.362.946.882 1.194 1.494a6.45 6.45 0 0 1 .483 2.668 6.936 6.936 0 0 1-.565 2.9 4.091 4.091 0 0 1-1.542 1.82 4.245 4.245 0 0 1-2.291.62c-.632 0-1.26-.112-1.856-.332v4.012l-2.113.19.017-11.36zm5.553 4.942c.43-.593.647-1.482.647-2.668 0-1.081-.179-1.872-.536-2.372a1.717 1.717 0 0 0-.621-.548 1.627 1.627 0 0 0-.792-.182 2.195 2.195 0 0 0-1.13.297 4.281 4.281 0 0 0-.991.815v5.19c.234.115.48.2.734.254.273.062.551.094.83.095.355.022.71-.046 1.034-.2.323-.153.607-.387.825-.68zM67.405 28.632c0-.718-.023-1.509-.068-2.373h1.977c.077.407.129.818.156 1.23.823-.94 1.764-1.41 2.825-1.41a3.074 3.074 0 0 1 1.785.54c.531.362.947.882 1.195 1.494a6.45 6.45 0 0 1 .483 2.668 6.939 6.939 0 0 1-.551 2.9 4.09 4.09 0 0 1-1.545 1.82 4.237 4.237 0 0 1-2.291.62c-.632 0-1.26-.112-1.856-.332v4.012l-2.113.19.003-11.36zm5.562 4.942c.43-.606.644-1.496.644-2.668 0-1.081-.178-1.872-.534-2.372a1.717 1.717 0 0 0-.62-.548 1.626 1.626 0 0 0-.792-.182 2.204 2.204 0 0 0-1.13.297 4.277 4.277 0 0 0-.992.815v5.19c.235.114.481.2.735.254.272.062.55.094.83.095.355.022.709-.047 1.033-.2.323-.154.607-.387.826-.68zM79.64 35.334a5.284 5.284 0 0 1-2.104-2.275 7.777 7.777 0 0 1-.734-3.501 7.619 7.619 0 0 1 .847-3.722 5.584 5.584 0 0 1 2.305-2.298 6.934 6.934 0 0 1 3.271-.768 8.174 8.174 0 0 1 2.04.25 8.39 8.39 0 0 1 1.808.675l-.548 1.705a7.22 7.22 0 0 0-3.218-.842c-.79-.014-1.569.191-2.26.593a3.875 3.875 0 0 0-1.51 1.702 6.225 6.225 0 0 0-.538 2.71c-.014.843.127 1.68.413 2.468.26.696.717 1.292 1.31 1.708a3.813 3.813 0 0 0 2.26.628 7.19 7.19 0 0 0 1.232-.11c.394-.065.78-.17 1.156-.314v-2.645h-2.865v-1.723h4.918v5.483c-.713.349-1.46.616-2.229.798a9.934 9.934 0 0 1-2.322.278 6.312 6.312 0 0 1-3.231-.8zM94.93 35.945a8.92 8.92 0 0 1-.147-1.284 4.107 4.107 0 0 1-1.269 1.038 3.628 3.628 0 0 1-1.765.427 3.19 3.19 0 0 1-1.452-.329 2.427 2.427 0 0 1-1.037-.987 3.136 3.136 0 0 1-.387-1.61 2.877 2.877 0 0 1 .232-1.244c.168-.39.42-.734.737-1.004.644-.562 1.718-.841 3.223-.84.56 0 1.12.042 1.675.125v-.19c0-.854-.173-1.456-.52-1.808a2.023 2.023 0 0 0-1.497-.525 5.652 5.652 0 0 0-1.446.208 7.35 7.35 0 0 0-1.362.492l-.333-1.613c.48-.215.977-.38 1.486-.495a8.329 8.329 0 0 1 1.952-.226c.696-.02 1.388.11 2.034.383.568.263 1.03.727 1.308 1.31.346.781.508 1.639.471 2.5v3.855c0 .395.023 1.002.068 1.82l-1.971-.003zm-1.266-1.779a3.42 3.42 0 0 0 1.076-.827v-1.78a13.06 13.06 0 0 0-1.412-.097c-.872 0-1.476.148-1.81.445a1.48 1.48 0 0 0-.381.532 1.55 1.55 0 0 0-.12.654c-.015.194.01.389.072.572.063.183.163.35.293.49.275.243.629.367.988.346.45-.007.893-.121 1.294-.335zM98.466 33.623V22.178l2.101-.178v11.23a1.46 1.46 0 0 0 .201.889c.081.091.18.162.291.206.11.045.229.063.347.052.192-.009.382-.043.566-.1l.248 1.588a3.485 3.485 0 0 1-.732.202c-.269.05-.542.075-.816.077-1.47-.01-2.206-.85-2.206-2.52zM103.722 33.623V22.178l2.104-.178v11.23c-.03.311.041.624.201.889a.75.75 0 0 0 .639.258c.19-.009.381-.043.564-.1l.246 1.588c-.235.094-.48.162-.729.202-.271.05-.544.075-.819.077-1.469-.01-2.204-.85-2.206-2.52zM116.118 31.387h-6.037c.096 2.03 1.017 3.046 2.762 3.046a5.663 5.663 0 0 0 1.331-.166 7.717 7.717 0 0 0 1.303-.445l.463 1.518a7.576 7.576 0 0 1-3.48.789 4.894 4.894 0 0 1-2.481-.593 3.661 3.661 0 0 1-1.519-1.679 6.224 6.224 0 0 1-.509-2.639 6.49 6.49 0 0 1 .54-2.763 4.055 4.055 0 0 1 1.5-1.78 4.055 4.055 0 0 1 2.22-.61 3.6 3.6 0 0 1 2.183.643 3.785 3.785 0 0 1 1.3 1.711c.291.753.435 1.56.424 2.372v.596zm-2.06-1.408a2.876 2.876 0 0 0-.564-1.738 1.713 1.713 0 0 0-.6-.451 1.624 1.624 0 0 0-.725-.142 1.714 1.714 0 0 0-.73.147 1.772 1.772 0 0 0-.609.446 3.169 3.169 0 0 0-.698 1.732l3.926.006zM117.717 28.693c0-.53-.025-1.343-.07-2.431h1.977c.034.27.066.593.1.964.034.37.051.679.061.913.213-.378.455-.737.724-1.073a2.97 2.97 0 0 1 .83-.71 2.11 2.11 0 0 1 1.082-.275c.286-.007.572.03.847.11l-.265 1.921a2.319 2.319 0 0 0-1.977.297 5.496 5.496 0 0 0-1.207 1.31v6.227h-2.102v-7.253zM124.444 39.912a4.898 4.898 0 0 1-.761-.192l.385-1.616c.178.05.358.09.539.121.203.038.41.058.617.06.94 0 1.642-.632 2.101-1.895l.138-.36-3.404-9.766h2.26l1.729 5.459c.221.702.4 1.418.537 2.143.161-.7.347-1.4.564-2.099l1.724-5.503H133l-3.39 9.811c-.256.79-.604 1.545-1.037 2.245a3.694 3.694 0 0 1-1.31 1.263 3.765 3.765 0 0 1-1.828.415 5.498 5.498 0 0 1-.991-.086zM45 9.107h3.724l-.103.967h-2.535v1.87h2.39v.9h-2.39v2.071h2.67l-.093.982H45v-6.79zM51.3 12.433l-1.96-3.326h1.243l1.333 2.443 1.4-2.443h1.207l-1.96 3.284 2.12 3.506h-1.26l-1.51-2.672-1.537 2.672h-1.207l2.131-3.464zM55.485 9.107h1.709c.8 0 1.414.175 1.842.525.213.18.382.411.493.676.111.264.161.554.145.843a2.33 2.33 0 0 1-.28 1.18c-.19.336-.467.605-.797.774-.368.186-.77.279-1.177.27a4.449 4.449 0 0 1-.84-.093v2.615h-1.095v-6.79zm2.745 3.032c.119-.123.212-.273.273-.438.06-.165.086-.343.077-.52.014-.17-.011-.34-.073-.498a1.037 1.037 0 0 0-.283-.402 1.698 1.698 0 0 0-1.05-.277h-.594v2.402c.208.04.419.063.63.069.367.03.731-.09 1.02-.336zM60.756 9.107h1.092v5.787h2.621l-.092 1.003h-3.621v-6.79zM66.132 15.563a2.742 2.742 0 0 1-1.064-1.2 4.138 4.138 0 0 1-.367-1.801 4.258 4.258 0 0 1 .392-1.88 2.85 2.85 0 0 1 1.12-1.242 3.311 3.311 0 0 1 1.75-.426 3.1 3.1 0 0 1 1.65.423c.456.278.824.696 1.055 1.2.25.555.374 1.165.362 1.78.015.659-.12 1.311-.395 1.9-.25.524-.64.957-1.12 1.243a3.31 3.31 0 0 1-1.722.438 3.087 3.087 0 0 1-1.66-.435zm2.834-.831c.309-.22.549-.533.689-.9.157-.421.234-.871.227-1.324a3.915 3.915 0 0 0-.202-1.306 1.92 1.92 0 0 0-.644-.9 2.064 2.064 0 0 0-1.133-.342c-.4 0-.791.118-1.133.341-.309.23-.55.552-.694.925-.16.403-.238.838-.232 1.276-.007.45.067.9.218 1.32.134.386.38.715.7.94.321.226.7.336 1.084.315.397.01.788-.11 1.12-.345zM72.246 9.107h1.983a2.5 2.5 0 0 1 1.643.466c.186.156.334.358.432.59.097.23.141.483.128.736a2.122 2.122 0 0 1-.7 1.618c-.185.16-.393.288-.616.378l1.96 3.002h-1.274l-1.649-2.702h-.804v2.702h-1.103v-6.79zm1.717 3.212c.243.006.484-.051.703-.165.196-.101.362-.26.478-.46.116-.211.175-.453.171-.699a.913.913 0 0 0-.063-.414.854.854 0 0 0-.24-.333 1.397 1.397 0 0 0-.879-.237h-.792v2.32l.622-.012zM77.932 9.107h3.732l-.106.967h-2.52v1.87h2.366v.9h-2.389v2.071h2.669l-.081.982h-3.671v-6.79zM85.726 9.107h1.092v6.79h-1.092v-6.79zM89.71 10.086h-1.961l.095-.979h4.929l-.101.979h-1.868v5.81H89.71v-5.81zM97.52 15.563a2.738 2.738 0 0 1-1.061-1.2 4.096 4.096 0 0 1-.37-1.802 4.257 4.257 0 0 1 .392-1.879c.25-.525.64-.958 1.12-1.242A3.327 3.327 0 0 1 99.341 9a3.087 3.087 0 0 1 1.665.436c.457.276.825.695 1.056 1.2a4.14 4.14 0 0 1 .364 1.78 4.241 4.241 0 0 1-.398 1.9c-.25.524-.64.957-1.12 1.243a3.292 3.292 0 0 1-1.722.438 3.089 3.089 0 0 1-1.666-.435zm2.837-.832a1.97 1.97 0 0 0 .686-.9c.157-.42.234-.87.226-1.324a3.925 3.925 0 0 0-.201-1.306 1.914 1.914 0 0 0-.642-.9 2.063 2.063 0 0 0-1.134-.342c-.4 0-.792.118-1.134.342-.31.23-.55.551-.694.925a3.404 3.404 0 0 0-.233 1.275c-.006.451.068.9.219 1.32.133.371.366.69.67.92a1.81 1.81 0 0 0 1.12.335c.396.01.785-.111 1.117-.345zM103.638 9.107h1.254l3.134 5.262c-.029-.501-.039-.96-.039-1.384V9.107H109v6.79h-1.215l-3.181-5.346c.031.6.047 1.143.047 1.615v3.73h-1.013V9.108z" fill="#fff"/></g><defs><clipPath id="a"><path fill="#fff" d="M0 0h141v47H0z"/></clipPath></defs></svg>