<svg width="141" height="47" viewBox="0 0 141 47" fill="none" xmlns="http://www.w3.org/2000/svg">
<g clip-path="url(#clip0_5799_990)">
<path d="M0 6.26633C0 2.8057 2.806 0 6.267 0H134.733C138.194 0 141 2.8057 141 6.26633V40.7337C141 44.1943 138.194 47 134.733 47H6.267C2.806 47 0 44.1943 0 40.7337V6.26633Z" fill="black"/>
<path d="M44 14.729C44 14.208 44.1197 13.74 44.3591 13.326C44.6046 12.907 44.9358 12.583 45.3528 12.353C45.7688 12.118 46.2308 12 46.7356 12C47.3142 12 47.825 12.14 48.267 12.422C48.716 12.702 49.0412 13.099 49.2447 13.61H48.3927C48.2513 13.3092 48.0225 13.0582 47.7362 12.89C47.4333 12.7117 47.0868 12.6213 46.7356 12.629C46.3555 12.629 46.0113 12.716 45.704 12.889C45.3993 13.0605 45.15 13.3159 44.9857 13.625C44.808 13.9652 44.7191 14.345 44.7273 14.729C44.7273 15.149 44.8131 15.516 44.9847 15.833C45.1522 16.1401 45.4012 16.3948 45.704 16.569C46.0113 16.738 46.3555 16.822 46.7356 16.822C47.2723 16.822 47.7133 16.666 48.0565 16.355C48.4007 16.038 48.5982 15.611 48.6501 15.075H46.4782V14.522H49.4083V15.059C49.3664 15.499 49.2258 15.902 48.9863 16.27C48.7469 16.633 48.4316 16.922 48.0405 17.137C47.6504 17.347 47.2155 17.451 46.7356 17.451C46.2308 17.451 45.7688 17.336 45.3528 17.106C44.9411 16.8759 44.5984 16.5396 44.3601 16.132C44.1172 15.705 43.9922 15.2205 44 14.729ZM51.4506 12.606V14.438H53.4359V14.975H51.4506V16.853H53.6704V17.405H50.7392V12.054H53.6704V12.606H51.4496H51.4506ZM58.4901 12.061V12.606H57.0046V17.405H56.2932V12.605H54.8017V12.061H58.4901ZM63.1851 12.061V17.405H62.4748V12.061H63.1851ZM68.1406 12.061V12.606H66.656V17.405H65.9457V12.605H64.4532V12.061H68.1406ZM74.5955 17.459C74.0897 17.459 73.6287 17.344 73.2117 17.114C72.8 16.8839 72.4573 16.5476 72.219 16.14C71.9796 15.72 71.8599 15.25 71.8599 14.73C71.8599 14.208 71.9796 13.74 72.219 13.326C72.4644 12.907 72.7947 12.583 73.2117 12.353C73.6287 12.118 74.0897 12 74.5955 12C75.1063 12 75.5692 12.118 75.9862 12.353C76.4032 12.583 76.7315 12.905 76.9709 13.319C77.2104 13.733 77.3301 14.203 77.3301 14.729C77.3301 15.256 77.2104 15.726 76.9709 16.14C76.7371 16.5483 76.3967 16.8851 75.9862 17.114C75.5692 17.344 75.1063 17.459 74.5955 17.459ZM74.5955 16.83C74.9756 16.83 75.3168 16.743 75.6191 16.57C75.9264 16.396 76.1658 16.15 76.3374 15.833C76.515 15.516 76.6038 15.148 76.6038 14.729C76.6038 14.31 76.515 13.942 76.3384 13.625C76.1767 13.3136 75.9264 13.0574 75.6191 12.889C75.3069 12.7129 74.9536 12.6232 74.5955 12.629C74.2154 12.629 73.8712 12.716 73.5639 12.889C73.2592 13.0605 73.0099 13.3159 72.8456 13.625C72.6675 13.9651 72.5783 14.345 72.5862 14.729C72.5862 15.149 72.673 15.516 72.8456 15.833C73.0129 16.1399 73.2614 16.3946 73.5639 16.569C73.8712 16.743 74.2154 16.83 74.5955 16.83ZM82.943 17.405H82.2316L79.3713 13.15V17.405H78.66V12.054H79.3713L82.2316 16.301V12.054H82.943V17.405Z" fill="white"/>
<path d="M50.0217 29.7436V31.3846H54.0395C53.9388 32.3077 53.6367 33.0256 53.1332 33.5384C52.529 34.1538 51.6228 34.7692 50.0217 34.7692C47.605 34.7692 45.7018 32.7179 45.7018 30.2564C45.7018 27.7949 47.615 25.7436 50.0217 25.7436C51.3307 25.7436 52.3377 26.2564 53.0426 26.9743L54.251 25.7436C53.244 24.8205 51.9349 24 50.1325 24C46.8195 24 44 26.7692 44 30.2564C44 33.641 46.8195 36.5128 50.1325 36.5128C51.945 36.5128 53.3447 35.8974 54.3517 34.7692C55.4593 33.641 55.7614 32.1025 55.7614 30.7692C55.7614 30.359 55.7614 30.0513 55.6607 29.7436H50.0217Z" fill="white"/>
<path d="M118.083 33.8462H117.982L115.968 28.718H114.166L117.177 35.7949L115.465 39.7949H117.277L122 28.718H120.097L118.083 33.8462Z" fill="white"/>
<path d="M91.7404 30.9744C91.4384 30.0513 90.4314 28.4103 88.4275 28.4103C86.4236 28.4103 84.7118 30.0513 84.7118 32.4103C84.7118 34.6667 86.4236 36.4103 88.6289 36.4103C90.4415 36.4103 91.4484 35.2821 91.8411 34.6667L90.5321 33.7436C90.1293 34.359 89.5251 34.8718 88.6188 34.8718C87.7126 34.8718 87.1084 34.4615 86.7056 33.641L91.9318 31.3846L91.7404 30.9744ZM86.4136 32.3077C86.4136 30.7692 87.6219 29.9487 88.4275 29.9487C89.1324 29.9487 89.7366 30.2564 89.8373 30.7692L86.4136 32.3077Z" fill="white"/>
<path d="M106.321 24.4103H104.609V36.2051H106.321V24.4103Z" fill="white"/>
<path d="M60.2828 28.4103C58.0675 28.4103 56.3657 30.0513 56.3657 32.4103C56.3657 34.6667 58.1783 36.4103 60.2828 36.4103C62.4982 36.4103 64.2 34.6667 64.2 32.4103C64.2 30.1539 62.3874 28.4103 60.2828 28.4103ZM60.2828 34.8718C59.0745 34.8718 58.0675 33.8462 58.0675 32.4103C58.0675 30.9744 59.0745 29.9487 60.2828 29.9487C61.4912 29.9487 62.4982 30.9744 62.4982 32.4103C62.4881 33.8462 61.4811 34.8718 60.2828 34.8718Z" fill="white"/>
<path d="M110.541 28.4103C109.332 28.4103 108.023 28.9231 107.52 30.2564L109.03 30.8718C109.332 30.2564 109.937 30.0513 110.641 30.0513C111.548 30.0513 112.454 30.5641 112.454 31.5898V31.6923C112.152 31.4872 111.447 31.2821 110.641 31.2821C109.03 31.2821 107.328 32.2051 107.328 33.9487C107.328 35.4872 108.638 36.5128 110.148 36.5128C111.256 36.5128 111.961 36 112.363 35.3846H112.464V36.3077H114.176V31.7949C113.964 29.5385 112.454 28.4103 110.541 28.4103ZM110.339 34.8718C109.735 34.8718 109.03 34.5641 109.03 33.8462C109.03 32.9231 110.037 32.6154 110.843 32.6154C111.648 32.6154 111.95 32.8205 112.454 33.0256C112.253 34.0513 111.246 34.8718 110.339 34.8718Z" fill="white"/>
<path d="M99.8868 24.4103H95.7683V36.2051H97.4802V31.7949H99.8969C101.81 31.7949 103.713 30.359 103.713 28.1026C103.703 25.8462 101.8 24.4103 99.8868 24.4103ZM99.8868 30.1539H97.4701V26.1539H99.8868C101.196 26.1539 101.901 27.2821 101.901 28.2051C101.901 29.0256 101.196 30.1539 99.8868 30.1539Z" fill="white"/>
<path d="M83.9062 24.4103H82.1943V36.2051H83.9062V24.4103Z" fill="white"/>
<path d="M79.4757 29.3334H79.375C78.9722 28.8205 78.1667 28.4103 77.2604 28.4103C75.3472 28.4103 73.5447 30.1539 73.5447 32.4103C73.5447 34.6667 75.3572 36.4103 77.2604 36.4103C78.1667 36.4103 78.9722 36 79.375 35.4872H79.4757V36.1026C79.4757 37.641 78.6702 38.4615 77.3611 38.4615C76.3541 38.4615 75.6492 37.641 75.3472 37.0256L73.8367 37.641C74.2395 38.6667 75.4479 40 77.351 40C79.365 40 81.0667 38.7692 81.0667 35.7949V28.6154H79.4556V29.3334H79.4757ZM77.3712 34.8718C76.1628 34.8718 75.1558 33.8462 75.1558 32.5128C75.1558 31.0769 76.1628 30.0513 77.3712 30.0513C78.5795 30.0513 79.4858 31.0769 79.4858 32.5128C79.4757 33.8462 78.5795 34.8718 77.3712 34.8718Z" fill="white"/>
<path d="M68.822 28.4103C66.6067 28.4103 64.9049 30.0513 64.9049 32.4103C64.9049 34.6667 66.7175 36.4103 68.822 36.4103C71.0374 36.4103 72.7391 34.6667 72.7391 32.4103C72.7391 30.1539 71.0374 28.4103 68.822 28.4103ZM68.822 34.8718C67.6137 34.8718 66.6067 33.8462 66.6067 32.4103C66.6067 30.9744 67.6137 29.9487 68.822 29.9487C70.0304 29.9487 71.0374 30.9744 71.0374 32.4103C71.0374 33.8462 70.0304 34.8718 68.822 34.8718Z" fill="white"/>
<mask id="mask0_5799_990" style="mask-type:luminance" maskUnits="userSpaceOnUse" x="11" y="10" width="22" height="27">
<path d="M11 11.7833C11 10.5834 12.2529 9.83039 13.2605 10.4252L32.2358 21.6082C32.4625 21.7387 32.6526 21.9303 32.7868 22.1634C32.9209 22.3966 32.9944 22.6632 32.9997 22.936C33.005 23.2089 32.9419 23.4784 32.8169 23.7172C32.6919 23.956 32.5094 24.1556 32.2879 24.2958L13.3117 36.543C12.3059 37.193 11 36.4441 11 35.2166V11.7823V11.7833Z" fill="white"/>
</mask>
<g mask="url(#mask0_5799_990)">
<path d="M11 11.7833C11 10.5834 12.2529 9.83039 13.2605 10.4252L32.2358 21.6082C32.4625 21.7387 32.6526 21.9303 32.7868 22.1634C32.9209 22.3966 32.9944 22.6632 32.9997 22.936C33.005 23.2089 32.9419 23.4784 32.8169 23.7172C32.6919 23.956 32.5094 24.1556 32.2879 24.2958L13.3117 36.543C12.3059 37.193 11 36.4441 11 35.2166V11.7823V11.7833Z" fill="#00F076"/>
<path d="M32.1701 32.1688L9.1101 8.11414L7.21924 36.8624L12.3233 40.9692L32.1701 32.1688Z" fill="#00C9FF"/>
<path d="M7.78589 39.0133L29.7137 16.9147L38.4094 20.6308L22.7207 39.7959L7.78589 39.0133Z" fill="#F53349"/>
<path fill-rule="evenodd" clip-rule="evenodd" d="M30.4396 30.3638L38.4084 20.6298L29.7127 16.9147L23.5257 23.151L30.4405 30.3649L30.4396 30.3638ZM27.1356 34.4014L15.7875 39.4337L22.7178 39.7969L27.1346 34.4024L27.1356 34.4014ZM10.0397 39.1317L8.72215 38.0705L7.78589 39.0133L10.0397 39.1317Z" fill="#FFCC00"/>
</g>
</g>
<defs>
<clipPath id="clip0_5799_990">
<rect width="141" height="47" fill="white"/>
</clipPath>
</defs>
</svg>
