<svg xmlns="http://www.w3.org/2000/svg" fill="none" viewBox="0 0 3063 1000"><path fill="#0081F6" d="M148.11 0H851.9A147.9 147.9 0 0 1 1000 148.11V851.9A147.9 147.9 0 0 1 851.89 1000H148.1A147.9 147.9 0 0 1 0 851.89V148.1A147.9 147.9 0 0 1 148.11 0Z"/><path fill="#fff" fill-rule="evenodd" d="M500 84C270.25 84 84 270.25 84 500s186.25 416 416 416 416-186.25 416-416S729.75 84 500 84Zm3.13 31.84.83 66.67c19.57 0 39.6 1.86 59.17 6.06l2.79.46-8.39 42.4a274.35 274.35 0 0 1 92.71 38.66l37.27-56.83 2.8 1.86c17.7 12.11 34.94 25.62 49.85 40.53l29.39-29.4c-68.66-67.6-162.64-109.58-266.42-110.41Zm270.61 114.61-29.4 29.4c14.91 14.9 28.42 31.67 40.54 49.38l1.86 2.8-38.2 26.08c20.5 32.15 34.94 66.62 42.4 104.35l.46 2.8-56.37 11.18c2.8 13.51 3.73 27.02 4.2 40.53h144.93c-.8-103.82-42.78-197.84-110.42-266.52Zm110.42 272.58h-145.4a273.77 273.77 0 0 1-4.66 43.79l-.47 2.8-31.21-6.53c-5.13 25.63-15.84 49.85-30.28 71.75l-1.87 2.8-145.81-97.84L773.97 769.3c67.5-68.66 109.4-162.58 110.2-266.28ZM769.31 773.97 518.87 523.53l57.3 87.58-2.8 1.86a132.81 132.81 0 0 1-48.45 19.57l-2.8.47-19.1-100.17v351.32c103.71-.8 197.63-42.69 266.3-110.19Zm-272.34 110.2V532.83l-49.85 263.68-2.8-.46c-39.13-7.45-75.93-21.9-109-43.8l-2.8-1.86 22.36-34c-13.04-8.86-25.62-18.64-36.8-29.82l-87.4 87.4c68.67 67.5 162.59 109.38 266.3 110.18ZM226.26 769.54l87.16-87.16a228.4 228.4 0 0 1-27.02-32.61l-70.81 48.45-1.87-2.8c-26.09-38.2-43.79-79.66-53.1-124.38l-.47-2.8 46.12-9.78c-3.73-18.64-5.13-36.8-5.6-55.44h-84.83c.8 103.82 42.78 197.84 110.42 266.52ZM115.83 497.44h84.85c0-17.24 1.86-35.4 5.12-52.64l.47-2.8 126.72 23.76c4.19-20.96 12.1-41 24.22-59.17l1.86-2.8 117.4 77.34L226.03 230.7c-67.6 68.76-109.52 162.86-110.2 266.75Zm114.85-271.4 249.99 250.43-87.59-131.37 2.8-1.87a196.58 196.58 0 0 1 65.22-27.48l-25.16-126.72 2.8-.46c19.1-3.73 38.66-5.6 58.23-6.06h.47v-66.68c-103.9.68-198 42.6-266.76 110.2Zm92.06 456.35c11.64 11.18 24.22 21.9 38.2 30.75l2.33 1.4-21.9 34a307.16 307.16 0 0 0 101.1 40.53l53.1-279.52-172.83 172.84Zm-31.22-36.34c8.39 11.18 16.78 21.9 26.56 31.68L474.6 521.2 291.52 646.05Zm170.05-324.24c-21.44 4.65-41.47 12.57-60.1 24.69l92.24 139.3-32.14-164ZM217.44 689.37l65.69-45.18 207.3-140.7h-283.7c0 19.1 1.86 37.74 6.05 56.84l.47 2.8-45.66 9.78c9.32 41.93 26.1 80.6 49.85 116.47Zm-6.06-240.85c-2.8 16.3-4.19 32.61-4.65 48.45h260.88L211.4 448.52ZM442.93 193.7l54.04 274.86V188.57c-18.17 0-35.87 1.86-54.04 5.12ZM732.7 503.03H510.02l5.12 2.33h-.47l154.2 103.42c13.98-21.43 23.3-44.72 28.42-69.88l.47-2.8 31.21 6.53c2.33-13.05 3.26-26.1 3.73-39.6ZM527.25 626.02a128.75 128.75 0 0 0 40.53-16.77l-61.96-94.1 21.43 110.87Zm201.72-168.18-197.52 39.13H732.7c-.47-13.04-1.4-26.09-3.73-39.13Zm-170.5-263.68c-18.64-3.73-37.27-5.13-55.44-5.6v301.42l143.49-214.76c-28.89-18.64-60.1-31.68-93.64-38.2l-2.8-.47 8.39-42.4Z" clip-rule="evenodd"/><path fill="#0A171F" d="m1170 305.45 89.84 383.7h108.45l59.89-243.35 59.44 243.8h115.71l90.3-383.7h-103l-52.64 241.56-56.26-241.56h-98.47l-51.27 238.86-49.91-239.31H1170Zm575.35 0v383.7h112.08v-383.7h-112.08Zm192.85 0v383.7h97.55V448.5l141.12 241.1h107.09V305.45h-97.11v216.37l-123.87-216.37H1938.2Zm561.74 299.14h-25.41V390.47h24.5c67.61 0 96.2 30.58 96.2 103.9v4.5c0 71.08-28.59 105.72-95.29 105.72Zm-137.03-299.14v383.7h140.21c67.61 0 120.24-17.54 155.18-51.73 34.48-32.83 52.63-80.52 52.63-140.8v-4.5c0-118.75-70.33-187.12-207.36-187.12h-140.66v.45Zm467.36 219.52v164.18h111.62V524.97l120.25-219.52h-106.18l-65.34 129.1-65.34-129.1h-120.7l125.69 219.52Z"/></svg>