<svg fill="none" height="39" viewBox="0 0 30 39" width="30" xmlns="http://www.w3.org/2000/svg" xmlns:xlink="http://www.w3.org/1999/xlink"><mask id="a" fill="#000" height="39" maskUnits="userSpaceOnUse" width="30" x="0" y="0"><path d="m0 0h30v39h-30z" fill="#fff"/><path clip-rule="evenodd" d="m2 14.9568c0 11.6695 13 22.0432 13 22.0432s13-10.3655 13-22.0349c0-7.15515-5.8256-12.9651-13-12.9651-7.17441 0-13 5.80995-13 12.9568zm13 7.0432c3.866 0 7-3.134 7-7s-3.134-7-7-7-7 3.134-7 7 3.134 7 7 7z" fill="#000" fill-rule="evenodd"/></mask><path clip-rule="evenodd" d="m2 14.9568c0 11.6695 13 22.0432 13 22.0432s13-10.3655 13-22.0349c0-7.15515-5.8256-12.9651-13-12.9651-7.17441 0-13 5.80995-13 12.9568zm13 7.0432c3.866 0 7-3.134 7-7s-3.134-7-7-7-7 3.134-7 7 3.134 7 7 7z" fill="#4b6b92" fill-rule="evenodd"/><path d="m15 37-1.2475 1.5633c.7295.5821 1.7646.5823 2.4944.0005zm0 0c1.2475-1.5633 1.2478-1.563 1.2482-1.5627 0 0 .0003.0002.0003.0003.0002.0001.0002.0001 0-.0001-.0005-.0003-.0017-.0013-.0037-.0029-.004-.0032-.011-.0089-.0209-.017-.02-.0162-.0517-.0421-.0945-.0775-.0855-.0708-.2149-.1793-.3821-.3234-.3344-.2884-.8187-.7181-1.4029-1.2717-1.1708-1.1094-2.7298-2.7038-4.2842-4.6419-3.16331-3.944-6.0602-9.0052-6.0602-14.1463h-4c0 6.5284 3.60311 12.4888 6.93982 16.649 1.69554 2.114 3.38658 3.8424 4.65328 5.0427.6346.6014 1.1659 1.0732 1.5424 1.3978.1883.1623.3382.288.4431.3749.0524.0434.0937.0772.123.1009.0146.0119.0262.0213.0347.0282.0043.0034.0078.0062.0105.0084.0014.0011.0025.002.0035.0028.0004.0003.001.0008.0012.001.0006.0004.001.0008 1.2485-1.5625zm11-22.0349c0 5.1409-2.8967 10.2-6.0599 14.1418-1.5544 1.937-3.1133 3.5303-4.284 4.639-.5842.5531-1.0684.9825-1.4029 1.2706-.1671.144-.2965.2525-.382.3232-.0428.0354-.0745.0613-.0945.0775-.0099.0081-.0169.0137-.0209.0169-.002.0016-.0032.0026-.0037.0029-.0002.0002-.0002.0002 0 .0001 0-.0001.0003-.0003.0004-.0003.0003-.0003.0006-.0006 1.2475 1.5632s1.2473 1.5634 1.2478 1.563c.0003-.0002.0009-.0007.0013-.0011.001-.0007.0021-.0016.0035-.0027.0027-.0022.0062-.005.0105-.0084.0085-.0069.0201-.0163.0347-.0281.0293-.0238.0706-.0575.123-.1009.105-.0868.2548-.2125.4431-.3747.3766-.3244.9079-.7959 1.5425-1.3968 1.2668-1.1996 2.9579-2.927 4.6535-5.04 3.3368-4.1583 6.9401-10.1166 6.9401-16.6452zm-11-10.9651c6.0749 0 11 4.91959 11 10.9651h4c0-8.26478-6.7261-14.9651-15-14.9651zm-11 10.9568c0-6.03639 4.92426-10.9568 11-10.9568v-4c-8.27308 0-15 6.69949-15 14.9568zm16 .0432c0 2.7614-2.2386 5-5 5v4c4.9706 0 9-4.0294 9-9zm-5-5c2.7614 0 5 2.2386 5 5h4c0-4.9706-4.0294-9-9-9zm-5 5c0-2.7614 2.2386-5 5-5v-4c-4.9706 0-9 4.0294-9 9zm5 5c-2.7614 0-5-2.2386-5-5h-4c0 4.9706 4.0294 9 9 9z" fill="#fff" mask="url(#a)"/></svg>