<svg fill="none" height="24" viewBox="0 0 24 24" width="24" xmlns="http://www.w3.org/2000/svg"><g fill="#385b6e"><path d="m5.70179 2.45344-.46523.36672-.46523-.36672.46523-.70344z"/><path clip-rule="evenodd" d="m5.23656 2.82016c.46523-.36672.46518-.36679.46523-.36672l.00191.0029.00464.00705.01711.02614c.01477.02264.03612.05554.06312.09758.05398.08403.13062.20474.2224.35312.1832.29617.42839.7053.67446 1.1546.24494.44724.49684.94529.68927 1.41745.18312.44932.34842.95906.34842 1.40071 0 1.5245-1.09769 2.79817-2.48656 2.79817s-2.48656-1.27367-2.48656-2.79817c0-.44165.16529-.95139.34842-1.40071.19243-.47216.44433-.97021.68927-1.41745.24607-.4493.49125-.85843.67446-1.1546.09177-.14838.16842-.26909.2224-.35312.027-.04204.04835-.07494.06312-.09758l.01711-.02614.00464-.00705.00191-.0029c.00005-.00007 0 0 .46523.36672zm0 1.11107c.14213.23657.30321.51322.46387.80656.23324.42589.45953.876.62573 1.28382.17552.43064.24932.73269.24932.89138 0 .87691-.62378 1.54526-1.33892 1.54526-.71515 0-1.33892-.66835-1.33892-1.54526 0-.15869.0738-.46074.24931-.89138.16621-.40782.3925-.85793.62574-1.28382.16066-.29334.32174-.56999.46387-.80656z" fill-rule="evenodd"/><path d="m17.6373 2.45344-.4653.36672-.4652-.36672.4652-.70344z"/><path clip-rule="evenodd" d="m17.172 2.82016c.4653-.36672.4652-.36679.4653-.36672l.0019.0029.0046.00705.0171.02614c.0148.02264.0362.05554.0632.09758.0539.08403.1306.20474.2224.35312.1832.29617.4283.7053.6744 1.1546.245.44724.4969.94529.6893 1.41745.1831.44932.3484.95906.3484 1.40071 0 1.5245-1.0977 2.79817-2.4866 2.79817-1.3888 0-2.4865-1.27367-2.4865-2.79817 0-.44165.1653-.95139.3484-1.40071.1924-.47216.4443-.97021.6893-1.41745.246-.4493.4912-.85843.6744-1.1546.0918-.14838.1685-.26909.2224-.35312.027-.04204.0484-.07494.0632-.09758l.0171-.02614.0046-.00705.0019-.0029c.0001-.00007 0 0 .4652.36672zm0 1.11107c.1422.23657.3033.51322.4639.80656.2333.42589.4595.876.6257 1.28382.1756.43064.2494.73269.2494.89138 0 .87691-.6238 1.54526-1.339 1.54526-.7151 0-1.3389-.66835-1.3389-1.54526 0-.15869.0738-.46074.2493-.89138.1662-.40782.3925-.85793.6258-1.28382.1606-.29334.3217-.56999.4638-.80656z" fill-rule="evenodd"/><path d="m5.23656 14.7619.46523-.3667-.46523-.7035-.46523.7035z"/><path clip-rule="evenodd" d="m5.23656 14.7619c-.46523-.3667-.46518-.3668-.46523-.3667l-.00191.0029-.00464.007-.01711.0262c-.01477.0226-.03612.0555-.06312.0975-.05398.0841-.13063.2048-.2224.3532-.18321.2961-.42839.7053-.67446 1.1546-.24494.4472-.49684.9453-.68927 1.4174-.18313.4493-.34842.9591-.34842 1.4007 0 1.5245 1.09769 2.7982 2.48656 2.7982s2.48656-1.2737 2.48656-2.7982c0-.4416-.1653-.9514-.34842-1.4007-.19243-.4721-.44433-.9702-.68927-1.4174-.24607-.4493-.49126-.8585-.67446-1.1546-.09178-.1484-.16842-.2691-.2224-.3532-.027-.042-.04835-.0749-.06312-.0975l-.01711-.0262-.00464-.007-.00191-.0029c-.00005-.0001 0 0-.46523.3667zm.46387 1.9176c-.16066-.2933-.32174-.57-.46387-.8065-.14213.2365-.30321.5132-.46387.8065-.23324.4259-.45953.876-.62574 1.2838-.17551.4307-.24931.7327-.24931.8914 0 .8769.62377 1.5453 1.33892 1.5453.71514 0 1.33892-.6684 1.33892-1.5453 0-.1587-.0738-.4607-.24932-.8914-.1662-.4078-.39249-.8579-.62573-1.2838z" fill-rule="evenodd"/></g></svg>