<svg fill="none" height="24" viewBox="0 0 24 24" width="24" xmlns="http://www.w3.org/2000/svg"><path clip-rule="evenodd" d="m10.2004 7.91131c1.2186-1.15796 2.8363-1.91131 5.143-1.91131 1.3685 0 2.549.35473 3.8177.84397.2482.09569.4207.32373.4452.58856.0246.26482-.1031.52067-.3295.66031-1.3277.81919-2.1481 2.33786-2.1481 4.02746 0 2.6609 2.0304 4.7203 4.5713 4.7203.3866 0 .7.3134.7.7s-.3134.7-.7.7c-3.3506 0-5.9713-2.7232-5.9713-6.1203 0-1.6683.6342-3.24646 1.7563-4.37882-.7266-.2182-1.4075-.34148-2.1416-.34148-1.9568 0-3.2267.62165-4.1787 1.52619-.9853.93632-1.66402 2.20391-2.36759 3.59051-.04395.0867-.08805.1739-.13236.2615-.64256 1.2707-1.332 2.6341-2.31702 3.6824-1.09393 1.1642-2.54479 1.9394-4.64773 1.9394-.3866 0-.7-.3134-.7-.7s.3134-.7.7-.7c1.69551 0 2.78341-.5998 3.62746-1.4981.84156-.8956 1.4453-2.0873 2.11656-3.4123.03468-.0684.06953-.1372.10461-.2063.69178-1.3634 1.46657-2.84581 2.65177-3.97199z" fill="#fff" fill-rule="evenodd"/></svg>