<svg fill="none" height="24" viewBox="0 0 24 24" width="24" xmlns="http://www.w3.org/2000/svg"><path d="m3 12.2302c0 1.4841 1.02455 2.7196 2.59905 3.036-.07533.2486-.113.5123-.113.791 0 1.6197 1.22042 2.8853 2.98326 2.8853h8.67099c2.004 0 3.3524-1.3861 3.3524-3.1565 0-1.4314-.9567-2.6744-2.3278-3.0511-.1883-1.5067-1.2882-2.7271-2.7121-3.08116-.2561-1.34096-1.3936-2.33538-2.7572-2.33538-.3541 0-.6705.0452-.9417.12807-.7006-.88142-1.6046-1.44643-2.84765-1.44643-1.81557 0-3.35993 1.37863-3.57087 3.17913-1.37863.38421-2.33538 1.61217-2.33538 3.05107zm1.36356 0c0-.9492.72321-1.7327 1.63477-1.8532.44447-.0603.61774-.2637.61774-.70819.01507-1.27316 1.02456-2.31278 2.29018-2.31278.88142 0 1.53685.45954 2.01895 1.19782.1884.29381.4671.36914.8438.24861.2109-.06027.4972-.12054.791-.12054.6479 0 1.1903.36914 1.4314.92662-.8965.15067-1.6875.64036-2.2375 1.37866-.2637-.0754-.5123-.1055-.7759-.1055-1.40127 0-2.61416.9718-2.90797 2.3203-.65541.0829-1.24302.3691-1.69503.791-1.28069-.0602-2.01144-.8362-2.01144-1.7628zm4.10575 5.3563c-1.00949 0-1.6197-.663-1.6197-1.5293 0-.9191.73075-1.5368 1.6423-1.5896.48968-.0226.70061-.1657.75335-.6177.12053-.9643.81364-1.6272 1.77794-1.6272.2787 0 .4595.0452.7533.1506.3993.1507.6253.0829.8061-.241.4068-.7383 1.1526-1.2205 2.0416-1.2205 1.2129 0 2.1922.9643 2.2449 2.2751.0151.5048.1808.6705.6479.7383.9869.1582 1.6197.9417 1.6197 1.8608 0 1.0321-.7383 1.8005-1.9964 1.8005z" fill="#fff"/></svg>