<svg fill="none" height="24" viewBox="0 0 24 24" width="24" xmlns="http://www.w3.org/2000/svg"><g fill="#fff"><path d="m13.8292 16.6911c0 .9717-.819 1.7593-1.8292 1.7593-1.0103 0-1.8293-.7876-1.8293-1.7593 0-.7659.509-1.4176 1.2195-1.6591v-4.2049c0-.3239.273-.5864.6097-.5864.3368 0 .6098.2625.6098.5864v4.2049c.7105.2415 1.2195.8931 1.2195 1.6591z"/><path clip-rule="evenodd" d="m12.0133 21.3826c2.6858 0 4.8647-2.0296 4.8647-4.5499 0-1.2893-.5603-2.4206-1.6186-3.3356-.1868-.158-.2312-.2578-.2312-.4907l.0088-7.28659c0-1.86324-1.2184-3.10262-3.0237-3.10262-1.8232 0-3.05937 1.23938-3.05937 3.10262l.01779 7.28659c0 .2329-.04447.3327-.23123.4907-1.06721.9067-1.6186 2.0463-1.6186 3.3356 0 2.5203 2.17889 4.5499 4.89141 4.5499zm0-1.4473c-1.8499 0-3.33506-1.3974-3.33506-3.1193 0-1.0564.5336-1.9713 1.46746-2.5619.2757-.1664.3824-.3244.3824-.6571v-7.81897c0-1.03975.5958-1.70519 1.4852-1.70519.8626 0 1.4585.66544 1.4585 1.70519v7.81897c0 .3327.1067.4907.3824.6571.9338.5906 1.4674 1.5055 1.4674 2.5619 0 1.7219-1.4852 3.1193-3.3083 3.1193z" fill-rule="evenodd"/></g></svg>