<svg xmlns="http://www.w3.org/2000/svg" width="44" height="44" fill="none"><path fill="#ededed" fill-rule="evenodd" d="M34.08 9.2a17.49 17.49 0 0 0-12.47-5.18c-4.71 0-9.12 1.84-12.44 5.18A17.62 17.62 0 0 0 4 21.7a17.65 17.65 0 0 0 17.62 17.7 17.62 17.62 0 0 0 17.63-17.69c0-4.74-1.83-9.19-5.18-12.52Zm-24.53.59 11.06 11.1-5.08-3.36-.08.12a7.13 7.13 0 0 0-1.05 2.57l-5.48-1.03-.02.12c-.14.75-.22 1.53-.22 2.28h-4A17 17 0 0 1 9.54 9.8Zm6.06 21.16a10.6 10.6 0 0 1-1.65-1.33l7.47-7.5-2.3 12.13a13.25 13.25 0 0 1-4.36-1.76L15.7 31l-.1-.06Zm-1.85-1.53c-.43-.43-.79-.9-1.15-1.38l7.92-5.42-6.77 6.8Zm3.6-14.38a7.7 7.7 0 0 1 2.6-1.07l1.4 7.12-4-6.05Zm-5.11 12.92L9.4 29.92a14.98 14.98 0 0 1-2.16-5.05l1.98-.43-.02-.12a11.4 11.4 0 0 1-.27-2.46h12.27l-8.96 6.1Zm-3.3-6.39c.01-.69.07-1.4.2-2.1l11.07 2.1H8.94Zm-4.28.26h4.01c.02.81.08 1.6.24 2.41l-1.99.43.02.12c.4 1.94 1.17 3.74 2.3 5.4l.08.12 3.06-2.1c.34.5.74.98 1.17 1.4l-4.03 4.05a17.16 17.16 0 0 1-4.86-11.83Zm16.82 16.9a16.95 16.95 0 0 1-11.76-4.89l4.03-4.04c.48.49 1.03.91 1.59 1.3l-.97 1.47.12.08a12.8 12.8 0 0 0 4.72 1.9l.12.02 2.15-11.44v15.61Zm0-18.4L19.16 8.42c.78-.14 1.55-.22 2.33-.22v12.15Zm0-12.4c-.84.02-1.69.1-2.52.26l-.12.02 1.1 5.5c-1.02.22-1.96.62-2.83 1.19l-.12.08 3.79 5.7L9.75 9.58A16.82 16.82 0 0 1 21.51 4.7v3.24h-.02Zm17.1 13.64h-6.62c-.02-.58-.06-1.17-.18-1.76l2.43-.48-.02-.12a13.08 13.08 0 0 0-1.83-4.53l1.65-1.13-.08-.13c-.52-.76-1.1-1.5-1.75-2.14l1.5-1.51a17 17 0 0 1 4.9 11.8ZM21.75 4.7c4.58.04 8.73 1.9 11.77 4.9L32 11.1a15.17 15.17 0 0 0-2.16-1.76l-.12-.08-1.61 2.47c-1.23-.81-2.6-1.38-4-1.68l.35-1.84-.12-.02c-.84-.18-1.7-.26-2.55-.26l-.05-3.24Zm.3 17.14h9.64a12.1 12.1 0 0 1-.17 1.72l-1.35-.28-.02.12a8.67 8.67 0 0 1-1.22 3.03l-6.67-4.48h.02l-.22-.1Zm2.5 4.61c-.54.35-1.12.6-1.75.73l-.92-4.81 2.67 4.08Zm-1.57-4.87 8.54-1.7c.1.57.14 1.14.17 1.7h-8.7ZM21.75 8.2c.79.02 1.6.08 2.4.24l-.36 1.84.12.02c1.45.28 2.8.85 4.05 1.66l-6.2 9.32V8.19Zm0 30.55V23.13l.83 4.35.12-.02a5.73 5.73 0 0 0 2.1-.85l.12-.08-2.48-3.8 11.06 11.1c-3 3-7.15 4.87-11.75 4.9Zm11.97-5.1L22.68 22.56l6.3 4.25.09-.12c.62-.95 1.08-2 1.3-3.12l1.36.29.02-.12c.12-.63.18-1.26.2-1.9h6.64a17 17 0 0 1-4.87 11.8Z" clip-rule="evenodd"/></svg>