<svg fill="none" height="24" viewBox="0 0 24 24" width="24" xmlns="http://www.w3.org/2000/svg"><g fill="#0081f6"><path d="m11.6105 5.27159c.4766-.14307.9914.01337 1.3124.39884l.0299.03583c.0863.10363.1567.21994.2087.34498l.0234.05618c.1561.37487.1323.8021-.0645 1.15661-.2291.41258-.6592.66778-1.1254.66778h-8.395c-.33137 0-.6.27294-.6.60964 0 .33669.26863.60964.6.60964h8.395c.8992 0 1.7287-.49221 2.1705-1.28797.3797-.68377.4257-1.50779.1246-2.2308l-.0234-.05619c-.0992-.2383-.2334-.45997-.3979-.65749l-.0298-.03583c-.6283-.75437-1.6357-1.06053-2.5685-.78054-.7043.21144-1.27841.73232-1.5646 1.41958l-.15848.38058c-.12912.31008.0136.66781.31878.79901.3052.13119.6573-.01382.7864-.3239l.1585-.38058c.1462-.35117.4395-.61733.7994-.72537z"/><path d="m18.0162 7.24055c.7561-.1174 1.4978.28553 1.8217.98954.1068.23214.1621.48526.1621.74151v.03638c0 .48332-.186.95781-.5138 1.31412-.367.3989-.8853.6296-1.4177.6296h-14.4685c-.33137 0-.6.273-.6.6096 0 .3367.26863.6097.6.6097h14.4685c.8696 0 1.7038-.3744 2.2943-1.0162.5326-.5789.8372-1.34986.8372-2.14682v-.03638c0-.43467-.0939-.86403-.275-1.2578-.5494-1.1942-1.8076-1.87768-3.0901-1.67854l-.1025.01592c-1.1573.1797-2.1125 1.0142-2.4608 2.14991l-.0198.06464c-.0986.32145.0779.66324.3943.76341.3164.10016.6528-.07922.7513-.40067l.0199-.06464c.2118-.69063.7926-1.19809 1.4964-1.30736z"/><path d="m3 14.5891c0-.3367.26863-.6096.6-.6096h9.026c.4285 0 .85.11 1.2255.3198.4804.2685.8625.6876 1.0894 1.1948l.0406.0907c.1631.3646.2475.7605.2475 1.1611v.2127c0 1.1931-.8169 2.2256-1.9637 2.482-.8314.1858-1.6987-.0707-2.302-.6809l-.0317-.0321c-.2028-.2051-.3706-.4429-.4966-.7039l-.3552-.7355c-.14596-.3023-.0231-.6675.2744-.8158.2974-.1484.6569-.0236.8029.2787l.3552.7355c.0675.1397.1573.2671.2659.3769l.0317.0321c.3139.3174.7651.4509 1.1975.3542.5966-.1334 1.0216-.6705 1.0216-1.2912v-.2127c0-.2265-.0477-.4504-.1399-.6566l-.0406-.0907c-.1198-.2678-.3216-.4891-.5753-.6309-.1983-.1108-.4209-.1689-.6472-.1689h-9.026c-.33137 0-.6-.273-.6-.6097z"/></g></svg>